<svg id="Camada_1" data-name="Camada 1" xmlns="http://www.w3.org/2000/svg" viewBox="0 0 1422.48 139.9"><defs><style>.cls-1{fill:#0c0a0d;}</style></defs><path class="cls-1" d="M6,64.7C6,28.6,34.6,3.9,70.5,3.9c26.2,0,41.7,12.3,51,26.4l-18.7,9c-6-9.7-17.9-17.1-32.3-17.1-23.7,0-42,17.8-42,42.5s18.3,42.5,42,42.5c14.4,0,26.3-7.2,32.3-17.1l18.7,9c-9.5,14.1-24.9,26.4-51,26.4C34.6,125.5,6,100.8,6,64.7Z"/><path class="cls-1" d="M217.2,100.8h-59L149,123.4H125.1l49-117.6h27.3l49,117.6H226.5ZM164.3,82.7H211L187.6,23.3Z"/><path class="cls-1" d="M263.9,5.8h85.4V24H285.8V54.5H348V72.7H285.8v32.6h63.5v18.2H263.9Z"/><path class="cls-1" d="M434.7,111.8a37.19,37.19,0,0,1-29,13.7c-23.2,0-40.2-16.6-40.2-44.6,0-27.5,16.8-44.8,40.2-44.8a37,37,0,0,1,29,13.9V5.8h19.6V123.4H434.7Zm0-47.8c-4.5-6.3-14-11.5-23.4-11.5-15.5,0-25.4,11.8-25.4,28.4,0,16.4,9.9,28.2,25.4,28.2,9.3,0,18.9-4.9,23.4-11.3Z"/><path d="M494.21,34.37c0-12.29,9.11-20.68,20.5-20.68a18.09,18.09,0,0,1,15.88,8.45l-5.1,2.7A12.64,12.64,0,0,0,514.71,19c-8.1,0-14.33,6.35-14.33,15.34s6.23,15.34,14.33,15.34a12.64,12.64,0,0,0,10.78-5.81l5.1,2.7a18.16,18.16,0,0,1-15.88,8.45C503.32,55.05,494.21,46.66,494.21,34.37Z"/><path d="M536.58,14.35h26.85v5.28H542.57V31.31H563v5.28H542.57V49.05h20.86v5.28H536.58Z"/><path d="M576.91,23.64V54.33h-6v-40h6.18l21.75,30v-30h6v40H599Z"/><path d="M623.47,19.63H611.06V14.35h30.75v5.28H629.46v34.7h-6Z"/><path d="M661.52,38.93H654v15.4h-6v-40h16.84c7.61,0,12.82,4.92,12.82,12.29,0,7.19-4.85,11-10,11.69l10.25,16h-7Zm2.58-19.3H654v14H664.1c4.31,0,7.43-2.82,7.43-7S668.41,19.63,664.1,19.63Z"/><path d="M703.53,13.69c11.93,0,20.14,8.81,20.14,20.68s-8.21,20.68-20.14,20.68-20.14-8.81-20.14-20.68S691.6,13.69,703.53,13.69Zm0,5.34c-8.57,0-14,6.53-14,15.34s5.4,15.34,14,15.34,14-6.59,14-15.34S712,19,703.53,19Z"/><path d="M746.37,14.35h14.27c12.46,0,20.74,8.51,20.74,20s-8.28,20-20.74,20H746.37Zm14.27,34.7c9.23,0,14.56-6.59,14.56-14.68s-5.15-14.74-14.56-14.74h-8.27V49.05Z"/><path d="M788.62,14.35h26.85v5.28H794.61V31.31h20.44v5.28H794.61V49.05h20.86v5.28H788.62Z"/><path d="M838.42,14.35h16.84C863.47,14.35,868,20,868,26.64s-4.62,12.29-12.77,12.29H844.41v15.4h-6Zm16.06,5.28H844.41v14h10.07c4.32,0,7.37-2.82,7.37-7S858.8,19.63,854.48,19.63Z"/><path d="M892.65,13.69c11.93,0,20.14,8.81,20.14,20.68s-8.21,20.68-20.14,20.68-20.13-8.81-20.13-20.68S880.73,13.69,892.65,13.69Zm0,5.34c-8.57,0-14,6.53-14,15.34s5.39,15.34,14,15.34,14-6.59,14-15.34S901.1,19,892.65,19Z"/><path d="M920,14.35h6v34.7h18.16v5.28H920Z"/><path d="M950.78,14.35h6v40h-6Zm.9-3.35,8.63-8.63h5.33l-10,8.63Z"/><path d="M975.47,19.63H963.06V14.35h30.75v5.28H981.46v34.7h-6Z"/><path d="M1000,14.35h6v40h-6Z"/><path d="M1013.28,34.37c0-12.29,9.11-20.68,20.5-20.68a18.09,18.09,0,0,1,15.88,8.45l-5.1,2.7A12.64,12.64,0,0,0,1033.78,19c-8.09,0-14.33,6.35-14.33,15.34s6.24,15.34,14.33,15.34a12.64,12.64,0,0,0,10.78-5.81l5.1,2.7a18.16,18.16,0,0,1-15.88,8.45C1022.39,55.05,1013.28,46.66,1013.28,34.37Z"/><path d="M1080.7,46.06h-19.6l-3.24,8.27h-6.59l15.88-40h7.5l15.88,40h-6.59Zm-17.86-5.34H1079l-8.09-21.15Z"/><path d="M1095.56,44.08a16.82,16.82,0,0,0,12.58,5.63c6.48,0,8.75-3.29,8.75-6.17,0-4.2-4.55-5.39-9.65-6.71-6.41-1.68-13.84-3.54-13.84-11.69,0-6.59,5.81-11.39,14.14-11.39,6.18,0,11,2,14.57,5.58l-3.48,4.43a15.62,15.62,0,0,0-11.57-4.67c-4.43,0-7.49,2.27-7.49,5.63,0,3.6,4.32,4.74,9.29,6C1115.39,32.45,1123,34.49,1123,43c0,6.23-4.32,12-15.11,12-7.13,0-12.34-2.58-15.76-6.36Z"/><path d="M1145.41,14.35h16.85c8.21,0,12.76,5.64,12.76,12.29s-4.61,12.29-12.76,12.29h-10.85v15.4h-6Zm16.07,5.28h-10.07v14h10.07c4.31,0,7.37-2.82,7.37-7S1165.79,19.63,1161.48,19.63Z"/><path d="M1181.19,14.35h6V38.51c0,6.83,3.78,11.2,10.79,11.2s10.73-4.37,10.73-11.2V14.35h6V38.63c0,9.94-5.57,16.42-16.78,16.42s-16.84-6.54-16.84-16.36ZM1195.87,11l8.63-8.63h5.34l-10,8.63Z"/><path d="M1223.74,14.35h18.76c7.13,0,11.26,4.38,11.26,10.19a9,9,0,0,1-7,9.17c4.26.66,7.73,5,7.73,9.83,0,6.29-4.19,10.79-11.56,10.79h-19.24Zm17.62,17c4,0,6.23-2.51,6.23-5.81s-2.22-5.87-6.23-5.87h-11.63V31.31Zm.3,17.74c4.19,0,6.71-2.39,6.71-6.29,0-3.3-2.28-6.17-6.71-6.17h-11.93V49.05Z"/><path d="M1262,14.35h6v34.7h18.16v5.28H1262Z"/><path d="M1292.71,14.35h6v40h-6Z"/><path d="M1306,34.37c0-12.29,9.11-20.68,20.5-20.68a18.09,18.09,0,0,1,15.88,8.45l-5.09,2.7A12.67,12.67,0,0,0,1326.45,19c-8.09,0-14.33,6.35-14.33,15.34s6.24,15.34,14.33,15.34a12.67,12.67,0,0,0,10.79-5.81l5.09,2.7a18.16,18.16,0,0,1-15.88,8.45C1315.06,55.05,1306,46.66,1306,34.37Z"/><path d="M1373.37,46.06h-19.6l-3.23,8.27h-6.6l15.89-40h7.49l15.88,40h-6.59Zm-17.86-5.34h16.12l-8.09-21.15Z"/><path d="M1388.23,44.08a16.84,16.84,0,0,0,12.58,5.63c6.48,0,8.76-3.29,8.76-6.17,0-4.2-4.56-5.39-9.65-6.71-6.42-1.68-13.85-3.54-13.85-11.69,0-6.59,5.82-11.39,14.15-11.39,6.17,0,11,2,14.56,5.58l-3.48,4.43a15.6,15.6,0,0,0-11.56-4.67c-4.44,0-7.5,2.27-7.5,5.63,0,3.6,4.32,4.74,9.29,6,6.54,1.74,14.15,3.78,14.15,12.29,0,6.23-4.32,12-15.1,12-7.14,0-12.35-2.58-15.77-6.36Z"/><path d="M495.89,81.29h26.85v5.28H501.88V98.25h20.44v5.28H501.88V116h20.86v5.28H495.89Z"/><path d="M571,113h-19.6l-3.24,8.27h-6.59l15.88-40h7.49l15.89,40h-6.6Zm-17.86-5.34h16.12l-8.09-21.15Z"/><path d="M578.34,81.29h6.84l12.76,33.44,12.83-33.44h6.83l-15.88,40h-7.49Z"/><path d="M644.56,113H625l-3.24,8.27h-6.59l15.88-40h7.49l15.88,40H647.8Zm-17.85-5.34h16.12l-8.09-21.15Z"/><path d="M659.18,81.29h6V116h18.16v5.28H659.18Z"/><path d="M689.92,81.29h6v40h-6Z"/><path d="M730.14,113h-19.6l-3.24,8.27h-6.59l15.88-40h7.49l15.89,40h-6.6Zm-17.86-5.34H728.4l-8.09-21.15Z"/><path d="M772.2,110.84l5.1,2.7A18.32,18.32,0,0,1,762.5,122l-1,2.51a4,4,0,0,1,2.21-.66,3.81,3.81,0,0,1,4,4c0,3.12-2.82,5-6.35,5a10.5,10.5,0,0,1-6.18-1.85l1.2-2.52a7.8,7.8,0,0,0,4.86,1.74c1.85,0,3.53-.78,3.53-2.46,0-1.08-.72-1.8-2.15-1.8a3,3,0,0,0-2.1.9l-2.28-1.26,1.38-3.65c-10.49-.9-18.64-9-18.64-20.62,0-12.29,9.11-20.68,20.5-20.68a18.09,18.09,0,0,1,15.88,8.45l-5.1,2.7A12.64,12.64,0,0,0,761.42,86c-8.09,0-14.33,6.35-14.33,15.34s6.24,15.34,14.33,15.34A12.66,12.66,0,0,0,772.2,110.84Z"/><path d="M808.34,113h-19.6l-3.24,8.27h-6.59l15.88-40h7.5l15.88,40h-6.59ZM794.79,73c-1.5,0-2.69,1.44-2.69,4.74H789c0-4.8,2.1-8,6-8,2.34,0,3.48,1.56,4.5,2.94.84,1.14,1.56,2.16,2.76,2.16,1.49,0,2.63-1.44,2.63-4.74H808c0,4.8-2.1,8-6,8-2.4,0-3.54-1.56-4.56-2.94C796.71,74,796,73,794.79,73Zm-4.31,34.7H806.6l-8.09-21.15Z"/><path d="M839.26,80.63c11.93,0,20.14,8.81,20.14,20.68S851.19,122,839.26,122s-20.14-8.81-20.14-20.68S827.33,80.63,839.26,80.63Zm0,5.34c-8.57,0-14,6.53-14,15.34s5.4,15.34,14,15.34,14-6.59,14-15.34S847.71,86,839.26,86Z"/><path d="M882.1,81.29h14.27c12.46,0,20.73,8.51,20.73,20s-8.27,20-20.73,20H882.1ZM896.37,116c9.23,0,14.56-6.59,14.56-14.68s-5.15-14.74-14.56-14.74H888.1V116Z"/><path d="M947.48,113H927.89l-3.24,8.27h-6.59l15.88-40h7.49l15.88,40h-6.59Zm-17.86-5.34h16.13l-8.09-21.15Z"/><path d="M977.56,81.29h26.85v5.28H983.56V98.25H1004v5.28H983.56V116h20.85v5.28H977.56Z"/><path d="M1011.9,81.29h14.26c12.47,0,20.74,8.51,20.74,20s-8.27,20-20.74,20H1011.9Zm14.26,34.7c9.23,0,14.57-6.59,14.57-14.68s-5.16-14.74-14.57-14.74h-8.27V116Z"/><path d="M1054.15,81.29h6v24.15c0,6.84,3.78,11.21,10.79,11.21s10.73-4.37,10.73-11.21V81.29h6v24.27c0,10-5.57,16.43-16.78,16.43s-16.84-6.54-16.84-16.37Z"/><path d="M1095,101.31c0-12.29,9.11-20.68,20.49-20.68a18.11,18.11,0,0,1,15.89,8.45l-5.1,2.7A12.66,12.66,0,0,0,1115.51,86c-8.09,0-14.32,6.35-14.32,15.34s6.23,15.34,14.32,15.34a12.68,12.68,0,0,0,10.79-5.81l5.1,2.7a18.18,18.18,0,0,1-15.89,8.45C1104.13,122,1095,113.6,1095,101.31Z"/><path d="M1162.43,113h-19.59l-3.24,8.27H1133l15.88-40h7.49l15.88,40h-6.59Zm-17.85-5.34h16.12l-8.09-21.15Z"/><path d="M1204.5,110.84l5.1,2.7a18.32,18.32,0,0,1-14.81,8.45l-1,2.51a4,4,0,0,1,2.21-.66,3.81,3.81,0,0,1,4,4c0,3.12-2.82,5-6.35,5a10.5,10.5,0,0,1-6.18-1.85l1.2-2.52a7.8,7.8,0,0,0,4.86,1.74c1.85,0,3.53-.78,3.53-2.46,0-1.08-.72-1.8-2.16-1.8a2.94,2.94,0,0,0-2.09.9l-2.28-1.26,1.38-3.65c-10.49-.9-18.64-9-18.64-20.62,0-12.29,9.11-20.68,20.5-20.68a18.09,18.09,0,0,1,15.88,8.45l-5.1,2.7A12.64,12.64,0,0,0,1193.72,86c-8.1,0-14.33,6.35-14.33,15.34s6.23,15.34,14.33,15.34A12.66,12.66,0,0,0,1204.5,110.84Z"/><path d="M1240.64,113H1221l-3.24,8.27h-6.59l15.88-40h7.49l15.89,40h-6.6Zm-13.55-40c-1.5,0-2.69,1.44-2.69,4.74h-3.06c0-4.8,2.1-8,6-8,2.34,0,3.48,1.56,4.5,2.94.84,1.14,1.56,2.16,2.75,2.16,1.5,0,2.64-1.44,2.64-4.74h3.12c0,4.8-2.1,8-6,8-2.39,0-3.53-1.56-4.55-2.94C1229,74,1228.29,73,1227.09,73Zm-4.31,34.7h16.12l-8.09-21.15Z"/><path d="M1271.56,80.63c11.92,0,20.13,8.81,20.13,20.68S1283.48,122,1271.56,122s-20.14-8.81-20.14-20.68S1259.63,80.63,1271.56,80.63Zm0,5.34c-8.57,0-14,6.53-14,15.34s5.4,15.34,14,15.34,14-6.59,14-15.34S1280,86,1271.56,86Z"/></svg>